<mxfile host="app.diagrams.net" modified="2022-05-03T05:23:34.460Z" agent="5.0 (Macintosh; Intel Mac OS X 10_15_7) AppleWebKit/537.36 (KHTML, like Gecko) Chrome/100.0.4896.127 Safari/537.36" etag="aSdEUurFvN9Kr75io8xa" version="17.5.0" type="github">
  <diagram id="3228e29e-7158-1315-38df-8450db1d8a1d" name="Page-1">
    <mxGraphModel dx="953" dy="-217" grid="0" gridSize="10" guides="1" tooltips="1" connect="1" arrows="1" fold="1" page="1" pageScale="1" pageWidth="900" pageHeight="400" background="#EFF1F3" math="0" shadow="0">
      <root>
        <mxCell id="0" />
        <mxCell id="1" parent="0" />
        <mxCell id="I5GyB5XluzBlx0XXR46O-14" style="edgeStyle=none;rounded=0;orthogonalLoop=1;jettySize=auto;html=1;exitX=0;exitY=1;exitDx=0;exitDy=0;fontSize=16;entryX=0.5;entryY=0;entryDx=0;entryDy=0;strokeWidth=2;strokeColor=#000000;" parent="1" source="I5GyB5XluzBlx0XXR46O-1" target="I5GyB5XluzBlx0XXR46O-2" edge="1">
          <mxGeometry relative="1" as="geometry" />
        </mxCell>
        <mxCell id="I5GyB5XluzBlx0XXR46O-15" style="edgeStyle=none;rounded=0;orthogonalLoop=1;jettySize=auto;html=1;exitX=1;exitY=1;exitDx=0;exitDy=0;entryX=0.5;entryY=0;entryDx=0;entryDy=0;fontSize=16;strokeWidth=2;strokeColor=#000000;" parent="1" source="I5GyB5XluzBlx0XXR46O-1" target="I5GyB5XluzBlx0XXR46O-3" edge="1">
          <mxGeometry relative="1" as="geometry" />
        </mxCell>
        <mxCell id="I5GyB5XluzBlx0XXR46O-1" value="&lt;font style=&quot;font-size: 16px&quot;&gt;1~7&lt;/font&gt;" style="ellipse;whiteSpace=wrap;html=1;aspect=fixed;fillColor=#9AC7BF;strokeColor=none;" parent="1" vertex="1">
          <mxGeometry x="650" y="897" width="63" height="63" as="geometry" />
        </mxCell>
        <mxCell id="I5GyB5XluzBlx0XXR46O-20" style="edgeStyle=none;rounded=0;orthogonalLoop=1;jettySize=auto;html=1;exitX=0;exitY=1;exitDx=0;exitDy=0;fontSize=16;entryX=0.5;entryY=0;entryDx=0;entryDy=0;strokeWidth=2;strokeColor=#000000;" parent="1" source="I5GyB5XluzBlx0XXR46O-2" target="yyw1uqhGUR_v7xHCsKaX-19" edge="1">
          <mxGeometry relative="1" as="geometry">
            <mxPoint x="537" y="1055" as="targetPoint" />
          </mxGeometry>
        </mxCell>
        <mxCell id="I5GyB5XluzBlx0XXR46O-22" style="edgeStyle=none;rounded=0;orthogonalLoop=1;jettySize=auto;html=1;exitX=1;exitY=1;exitDx=0;exitDy=0;entryX=0.5;entryY=0;entryDx=0;entryDy=0;fontSize=16;strokeWidth=2;strokeColor=#000000;" parent="1" source="I5GyB5XluzBlx0XXR46O-2" target="yyw1uqhGUR_v7xHCsKaX-27" edge="1">
          <mxGeometry relative="1" as="geometry">
            <mxPoint x="611.8699999999999" y="1055" as="targetPoint" />
          </mxGeometry>
        </mxCell>
        <mxCell id="I5GyB5XluzBlx0XXR46O-2" value="&lt;span style=&quot;font-size: 16px&quot;&gt;1~4&lt;/span&gt;" style="ellipse;whiteSpace=wrap;html=1;aspect=fixed;fillColor=#9AC7BF;strokeColor=none;" parent="1" vertex="1">
          <mxGeometry x="544" y="971" width="63" height="63" as="geometry" />
        </mxCell>
        <mxCell id="I5GyB5XluzBlx0XXR46O-23" style="edgeStyle=none;rounded=0;orthogonalLoop=1;jettySize=auto;html=1;exitX=0;exitY=1;exitDx=0;exitDy=0;entryX=0.5;entryY=0;entryDx=0;entryDy=0;fontSize=16;strokeWidth=2;strokeColor=#000000;" parent="1" source="I5GyB5XluzBlx0XXR46O-3" target="yyw1uqhGUR_v7xHCsKaX-35" edge="1">
          <mxGeometry relative="1" as="geometry">
            <mxPoint x="688" y="1055" as="targetPoint" />
          </mxGeometry>
        </mxCell>
        <mxCell id="I5GyB5XluzBlx0XXR46O-24" style="edgeStyle=none;rounded=0;orthogonalLoop=1;jettySize=auto;html=1;exitX=1;exitY=1;exitDx=0;exitDy=0;entryX=0.5;entryY=0;entryDx=0;entryDy=0;fontSize=16;strokeWidth=2;strokeColor=#000000;" parent="1" source="I5GyB5XluzBlx0XXR46O-3" target="yyw1uqhGUR_v7xHCsKaX-43" edge="1">
          <mxGeometry relative="1" as="geometry">
            <mxPoint x="764.0000000000002" y="1055" as="targetPoint" />
          </mxGeometry>
        </mxCell>
        <mxCell id="I5GyB5XluzBlx0XXR46O-3" value="&lt;font style=&quot;font-size: 16px&quot;&gt;7~10&lt;/font&gt;" style="ellipse;whiteSpace=wrap;html=1;aspect=fixed;fillColor=#9AC7BF;strokeColor=none;" parent="1" vertex="1">
          <mxGeometry x="748" y="971" width="63" height="63" as="geometry" />
        </mxCell>
        <mxCell id="I5GyB5XluzBlx0XXR46O-33" value="主键索引" style="text;html=1;strokeColor=none;fillColor=none;align=center;verticalAlign=middle;whiteSpace=wrap;rounded=0;fontSize=9;" parent="1" vertex="1">
          <mxGeometry x="651.5" y="861" width="60" height="30" as="geometry" />
        </mxCell>
        <mxCell id="yyw1uqhGUR_v7xHCsKaX-1" style="edgeStyle=none;rounded=0;orthogonalLoop=1;jettySize=auto;html=1;exitX=0;exitY=1;exitDx=0;exitDy=0;fontSize=16;entryX=0.5;entryY=0;entryDx=0;entryDy=0;strokeWidth=2;strokeColor=#000000;" edge="1" parent="1" source="yyw1uqhGUR_v7xHCsKaX-3" target="yyw1uqhGUR_v7xHCsKaX-6">
          <mxGeometry relative="1" as="geometry" />
        </mxCell>
        <mxCell id="yyw1uqhGUR_v7xHCsKaX-2" style="edgeStyle=none;rounded=0;orthogonalLoop=1;jettySize=auto;html=1;exitX=1;exitY=1;exitDx=0;exitDy=0;entryX=0.5;entryY=0;entryDx=0;entryDy=0;fontSize=16;strokeWidth=2;strokeColor=#000000;" edge="1" parent="1" source="yyw1uqhGUR_v7xHCsKaX-3" target="yyw1uqhGUR_v7xHCsKaX-9">
          <mxGeometry relative="1" as="geometry" />
        </mxCell>
        <mxCell id="yyw1uqhGUR_v7xHCsKaX-3" value="&lt;font style=&quot;font-size: 16px&quot;&gt;小白&lt;br&gt;1~7&lt;/font&gt;" style="ellipse;whiteSpace=wrap;html=1;aspect=fixed;fillColor=#9AC7BF;strokeColor=none;" vertex="1" parent="1">
          <mxGeometry x="194.5" y="897" width="63" height="63" as="geometry" />
        </mxCell>
        <mxCell id="yyw1uqhGUR_v7xHCsKaX-4" style="edgeStyle=none;rounded=0;orthogonalLoop=1;jettySize=auto;html=1;exitX=0;exitY=1;exitDx=0;exitDy=0;fontSize=16;entryX=0.5;entryY=0;entryDx=0;entryDy=0;strokeWidth=2;strokeColor=#000000;" edge="1" parent="1" source="yyw1uqhGUR_v7xHCsKaX-6" target="yyw1uqhGUR_v7xHCsKaX-61">
          <mxGeometry relative="1" as="geometry">
            <mxPoint x="87.5" y="1055" as="targetPoint" />
          </mxGeometry>
        </mxCell>
        <mxCell id="yyw1uqhGUR_v7xHCsKaX-5" style="edgeStyle=none;rounded=0;orthogonalLoop=1;jettySize=auto;html=1;exitX=1;exitY=1;exitDx=0;exitDy=0;entryX=0.5;entryY=0;entryDx=0;entryDy=0;fontSize=16;strokeWidth=2;strokeColor=#000000;" edge="1" parent="1" source="yyw1uqhGUR_v7xHCsKaX-6" target="yyw1uqhGUR_v7xHCsKaX-70">
          <mxGeometry relative="1" as="geometry">
            <mxPoint x="175.3699999999999" y="1055" as="targetPoint" />
          </mxGeometry>
        </mxCell>
        <mxCell id="yyw1uqhGUR_v7xHCsKaX-6" value="&lt;span style=&quot;font-size: 16px&quot;&gt;小白&lt;/span&gt;&lt;br style=&quot;font-size: 16px&quot;&gt;&lt;span style=&quot;font-size: 16px&quot;&gt;1~4&lt;/span&gt;" style="ellipse;whiteSpace=wrap;html=1;aspect=fixed;fillColor=#9AC7BF;strokeColor=none;" vertex="1" parent="1">
          <mxGeometry x="90" y="971" width="63" height="63" as="geometry" />
        </mxCell>
        <mxCell id="yyw1uqhGUR_v7xHCsKaX-7" style="edgeStyle=none;rounded=0;orthogonalLoop=1;jettySize=auto;html=1;exitX=0;exitY=1;exitDx=0;exitDy=0;entryX=0.5;entryY=0;entryDx=0;entryDy=0;fontSize=16;strokeWidth=2;strokeColor=#000000;" edge="1" parent="1" source="yyw1uqhGUR_v7xHCsKaX-9" target="yyw1uqhGUR_v7xHCsKaX-79">
          <mxGeometry relative="1" as="geometry">
            <mxPoint x="263.5" y="1055" as="targetPoint" />
          </mxGeometry>
        </mxCell>
        <mxCell id="yyw1uqhGUR_v7xHCsKaX-8" style="edgeStyle=none;rounded=0;orthogonalLoop=1;jettySize=auto;html=1;exitX=1;exitY=1;exitDx=0;exitDy=0;entryX=0.5;entryY=0;entryDx=0;entryDy=0;fontSize=16;strokeWidth=2;strokeColor=#000000;" edge="1" parent="1" source="yyw1uqhGUR_v7xHCsKaX-9" target="yyw1uqhGUR_v7xHCsKaX-87">
          <mxGeometry relative="1" as="geometry">
            <mxPoint x="353.5" y="1055" as="targetPoint" />
          </mxGeometry>
        </mxCell>
        <mxCell id="yyw1uqhGUR_v7xHCsKaX-9" value="&lt;span style=&quot;font-size: 16px&quot;&gt;小白&lt;/span&gt;&lt;br style=&quot;font-size: 16px&quot;&gt;&lt;span style=&quot;font-size: 16px&quot;&gt;7~10&lt;/span&gt;" style="ellipse;whiteSpace=wrap;html=1;aspect=fixed;fillColor=#9AC7BF;strokeColor=none;" vertex="1" parent="1">
          <mxGeometry x="292" y="971" width="63" height="63" as="geometry" />
        </mxCell>
        <mxCell id="yyw1uqhGUR_v7xHCsKaX-14" value="user_name&lt;br&gt;非主键索引" style="text;html=1;strokeColor=none;fillColor=none;align=center;verticalAlign=middle;whiteSpace=wrap;rounded=0;fontSize=9;" vertex="1" parent="1">
          <mxGeometry x="191" y="861" width="77.5" height="30" as="geometry" />
        </mxCell>
        <mxCell id="yyw1uqhGUR_v7xHCsKaX-53" style="edgeStyle=none;rounded=0;orthogonalLoop=1;jettySize=auto;html=1;exitX=1;exitY=0.5;exitDx=0;exitDy=0;entryX=0;entryY=0.5;entryDx=0;entryDy=0;fontSize=16;fontColor=#FFFFFF;strokeColor=#000000;strokeWidth=1;startArrow=classic;startFill=1;" edge="1" parent="1" source="yyw1uqhGUR_v7xHCsKaX-17" target="yyw1uqhGUR_v7xHCsKaX-25">
          <mxGeometry relative="1" as="geometry" />
        </mxCell>
        <mxCell id="yyw1uqhGUR_v7xHCsKaX-17" value="&lt;font color=&quot;#ffffff&quot;&gt;&lt;span style=&quot;font-size: 16px&quot;&gt;&lt;br&gt;&lt;/span&gt;&lt;/font&gt;" style="whiteSpace=wrap;html=1;aspect=fixed;rounded=1;strokeColor=none;fillColor=#4A919B;" vertex="1" parent="1">
          <mxGeometry x="484" y="1059" width="80" height="80" as="geometry" />
        </mxCell>
        <mxCell id="yyw1uqhGUR_v7xHCsKaX-18" value="数据" style="rounded=1;whiteSpace=wrap;html=1;fillColor=#9AC7BF;strokeColor=default;fontColor=#000000;align=center;" vertex="1" parent="1">
          <mxGeometry x="507" y="1081" width="50" height="17" as="geometry" />
        </mxCell>
        <mxCell id="yyw1uqhGUR_v7xHCsKaX-19" value="&lt;font color=&quot;#ffffff&quot;&gt;页号100&lt;/font&gt;" style="text;html=1;strokeColor=none;fillColor=none;align=center;verticalAlign=middle;whiteSpace=wrap;rounded=0;dashed=1;fontColor=#535E80;" vertex="1" parent="1">
          <mxGeometry x="496" y="1059" width="55" height="22" as="geometry" />
        </mxCell>
        <mxCell id="yyw1uqhGUR_v7xHCsKaX-20" value="&lt;font&gt;1&lt;/font&gt;" style="rounded=1;whiteSpace=wrap;html=1;fillColor=#9AC7BF;strokeColor=default;fontColor=#000000;" vertex="1" parent="1">
          <mxGeometry x="491.25" y="1081" width="15.75" height="17" as="geometry" />
        </mxCell>
        <mxCell id="yyw1uqhGUR_v7xHCsKaX-21" value="数据" style="rounded=1;whiteSpace=wrap;html=1;fillColor=#9AC7BF;strokeColor=default;fontColor=#000000;align=center;" vertex="1" parent="1">
          <mxGeometry x="507" y="1098" width="50" height="17" as="geometry" />
        </mxCell>
        <mxCell id="yyw1uqhGUR_v7xHCsKaX-22" value="&lt;font&gt;2&lt;/font&gt;" style="rounded=1;whiteSpace=wrap;html=1;fillColor=#9AC7BF;strokeColor=default;fontColor=#000000;" vertex="1" parent="1">
          <mxGeometry x="491.25" y="1098" width="15.75" height="17" as="geometry" />
        </mxCell>
        <mxCell id="yyw1uqhGUR_v7xHCsKaX-23" value="数据" style="rounded=1;whiteSpace=wrap;html=1;fillColor=#9AC7BF;strokeColor=default;fontColor=#000000;align=center;" vertex="1" parent="1">
          <mxGeometry x="507" y="1115" width="50" height="17" as="geometry" />
        </mxCell>
        <mxCell id="yyw1uqhGUR_v7xHCsKaX-24" value="&lt;font&gt;3&lt;/font&gt;" style="rounded=1;whiteSpace=wrap;html=1;fillColor=#9AC7BF;strokeColor=default;fontColor=#000000;" vertex="1" parent="1">
          <mxGeometry x="491.25" y="1115" width="15.75" height="17" as="geometry" />
        </mxCell>
        <mxCell id="yyw1uqhGUR_v7xHCsKaX-54" style="edgeStyle=none;rounded=0;orthogonalLoop=1;jettySize=auto;html=1;exitX=1;exitY=0.5;exitDx=0;exitDy=0;entryX=0;entryY=0.5;entryDx=0;entryDy=0;fontSize=16;fontColor=#FFFFFF;startArrow=classic;startFill=1;strokeColor=#000000;strokeWidth=1;" edge="1" parent="1" source="yyw1uqhGUR_v7xHCsKaX-25" target="yyw1uqhGUR_v7xHCsKaX-33">
          <mxGeometry relative="1" as="geometry" />
        </mxCell>
        <mxCell id="yyw1uqhGUR_v7xHCsKaX-25" value="&lt;font color=&quot;#ffffff&quot;&gt;&lt;span style=&quot;font-size: 16px&quot;&gt;&lt;br&gt;&lt;/span&gt;&lt;/font&gt;" style="whiteSpace=wrap;html=1;aspect=fixed;rounded=1;strokeColor=none;fillColor=#4A919B;" vertex="1" parent="1">
          <mxGeometry x="588" y="1059" width="80" height="80" as="geometry" />
        </mxCell>
        <mxCell id="yyw1uqhGUR_v7xHCsKaX-26" value="数据" style="rounded=1;whiteSpace=wrap;html=1;fillColor=#9AC7BF;strokeColor=default;fontColor=#000000;align=center;" vertex="1" parent="1">
          <mxGeometry x="611" y="1081" width="50" height="17" as="geometry" />
        </mxCell>
        <mxCell id="yyw1uqhGUR_v7xHCsKaX-27" value="&lt;font color=&quot;#ffffff&quot;&gt;页号105&lt;/font&gt;" style="text;html=1;strokeColor=none;fillColor=none;align=center;verticalAlign=middle;whiteSpace=wrap;rounded=0;dashed=1;fontColor=#535E80;" vertex="1" parent="1">
          <mxGeometry x="600" y="1059" width="55" height="22" as="geometry" />
        </mxCell>
        <mxCell id="yyw1uqhGUR_v7xHCsKaX-28" value="&lt;font&gt;4&lt;/font&gt;" style="rounded=1;whiteSpace=wrap;html=1;fillColor=#9AC7BF;strokeColor=default;fontColor=#000000;" vertex="1" parent="1">
          <mxGeometry x="595.25" y="1081" width="15.75" height="17" as="geometry" />
        </mxCell>
        <mxCell id="yyw1uqhGUR_v7xHCsKaX-29" value="数据" style="rounded=1;whiteSpace=wrap;html=1;fillColor=#9AC7BF;strokeColor=default;fontColor=#000000;align=center;" vertex="1" parent="1">
          <mxGeometry x="611" y="1098" width="50" height="17" as="geometry" />
        </mxCell>
        <mxCell id="yyw1uqhGUR_v7xHCsKaX-30" value="&lt;font&gt;5&lt;/font&gt;" style="rounded=1;whiteSpace=wrap;html=1;fillColor=#9AC7BF;strokeColor=default;fontColor=#000000;" vertex="1" parent="1">
          <mxGeometry x="595.25" y="1098" width="15.75" height="17" as="geometry" />
        </mxCell>
        <mxCell id="yyw1uqhGUR_v7xHCsKaX-31" value="数据" style="rounded=1;whiteSpace=wrap;html=1;fillColor=#9AC7BF;strokeColor=default;fontColor=#000000;align=center;" vertex="1" parent="1">
          <mxGeometry x="611" y="1115" width="50" height="17" as="geometry" />
        </mxCell>
        <mxCell id="yyw1uqhGUR_v7xHCsKaX-32" value="&lt;font&gt;6&lt;/font&gt;" style="rounded=1;whiteSpace=wrap;html=1;fillColor=#9AC7BF;strokeColor=default;fontColor=#000000;" vertex="1" parent="1">
          <mxGeometry x="595.25" y="1115" width="15.75" height="17" as="geometry" />
        </mxCell>
        <mxCell id="yyw1uqhGUR_v7xHCsKaX-55" style="edgeStyle=none;rounded=0;orthogonalLoop=1;jettySize=auto;html=1;exitX=1;exitY=0.5;exitDx=0;exitDy=0;fontSize=16;fontColor=#FFFFFF;startArrow=classic;startFill=1;strokeColor=#000000;strokeWidth=1;" edge="1" parent="1" source="yyw1uqhGUR_v7xHCsKaX-33" target="yyw1uqhGUR_v7xHCsKaX-41">
          <mxGeometry relative="1" as="geometry" />
        </mxCell>
        <mxCell id="yyw1uqhGUR_v7xHCsKaX-33" value="&lt;font color=&quot;#ffffff&quot;&gt;&lt;span style=&quot;font-size: 16px&quot;&gt;&lt;br&gt;&lt;/span&gt;&lt;/font&gt;" style="whiteSpace=wrap;html=1;aspect=fixed;rounded=1;strokeColor=none;fillColor=#4A919B;" vertex="1" parent="1">
          <mxGeometry x="690" y="1059" width="80" height="80" as="geometry" />
        </mxCell>
        <mxCell id="yyw1uqhGUR_v7xHCsKaX-34" value="数据" style="rounded=1;whiteSpace=wrap;html=1;fillColor=#9AC7BF;strokeColor=default;fontColor=#000000;align=center;" vertex="1" parent="1">
          <mxGeometry x="713" y="1081" width="50" height="17" as="geometry" />
        </mxCell>
        <mxCell id="yyw1uqhGUR_v7xHCsKaX-35" value="&lt;font color=&quot;#ffffff&quot;&gt;页号97&lt;/font&gt;" style="text;html=1;strokeColor=none;fillColor=none;align=center;verticalAlign=middle;whiteSpace=wrap;rounded=0;dashed=1;fontColor=#535E80;" vertex="1" parent="1">
          <mxGeometry x="702" y="1059" width="55" height="22" as="geometry" />
        </mxCell>
        <mxCell id="yyw1uqhGUR_v7xHCsKaX-36" value="&lt;font&gt;7&lt;/font&gt;" style="rounded=1;whiteSpace=wrap;html=1;fillColor=#9AC7BF;strokeColor=default;fontColor=#000000;" vertex="1" parent="1">
          <mxGeometry x="697.25" y="1081" width="15.75" height="17" as="geometry" />
        </mxCell>
        <mxCell id="yyw1uqhGUR_v7xHCsKaX-37" value="数据" style="rounded=1;whiteSpace=wrap;html=1;fillColor=#9AC7BF;strokeColor=default;fontColor=#000000;align=center;" vertex="1" parent="1">
          <mxGeometry x="713" y="1098" width="50" height="17" as="geometry" />
        </mxCell>
        <mxCell id="yyw1uqhGUR_v7xHCsKaX-38" value="&lt;font&gt;8&lt;/font&gt;" style="rounded=1;whiteSpace=wrap;html=1;fillColor=#9AC7BF;strokeColor=default;fontColor=#000000;" vertex="1" parent="1">
          <mxGeometry x="697.25" y="1098" width="15.75" height="17" as="geometry" />
        </mxCell>
        <mxCell id="yyw1uqhGUR_v7xHCsKaX-39" value="数据" style="rounded=1;whiteSpace=wrap;html=1;fillColor=#9AC7BF;strokeColor=default;fontColor=#000000;align=center;" vertex="1" parent="1">
          <mxGeometry x="713" y="1115" width="50" height="17" as="geometry" />
        </mxCell>
        <mxCell id="yyw1uqhGUR_v7xHCsKaX-40" value="&lt;font&gt;9&lt;/font&gt;" style="rounded=1;whiteSpace=wrap;html=1;fillColor=#9AC7BF;strokeColor=default;fontColor=#000000;" vertex="1" parent="1">
          <mxGeometry x="697.25" y="1115" width="15.75" height="17" as="geometry" />
        </mxCell>
        <mxCell id="yyw1uqhGUR_v7xHCsKaX-41" value="&lt;font color=&quot;#ffffff&quot;&gt;&lt;span style=&quot;font-size: 16px&quot;&gt;&lt;br&gt;&lt;/span&gt;&lt;/font&gt;" style="whiteSpace=wrap;html=1;aspect=fixed;rounded=1;strokeColor=none;fillColor=#4A919B;" vertex="1" parent="1">
          <mxGeometry x="792" y="1059" width="80" height="80" as="geometry" />
        </mxCell>
        <mxCell id="yyw1uqhGUR_v7xHCsKaX-42" value="数据" style="rounded=1;whiteSpace=wrap;html=1;fillColor=#F19C99;strokeColor=default;fontColor=#000000;align=center;" vertex="1" parent="1">
          <mxGeometry x="815" y="1081" width="50" height="17" as="geometry" />
        </mxCell>
        <mxCell id="yyw1uqhGUR_v7xHCsKaX-43" value="&lt;font color=&quot;#ffffff&quot;&gt;页号80&lt;/font&gt;" style="text;html=1;strokeColor=none;fillColor=none;align=center;verticalAlign=middle;whiteSpace=wrap;rounded=0;dashed=1;fontColor=#535E80;" vertex="1" parent="1">
          <mxGeometry x="804" y="1059" width="55" height="22" as="geometry" />
        </mxCell>
        <mxCell id="yyw1uqhGUR_v7xHCsKaX-44" value="&lt;font&gt;10&lt;/font&gt;" style="rounded=1;whiteSpace=wrap;html=1;fillColor=#F19C99;strokeColor=default;fontColor=#000000;" vertex="1" parent="1">
          <mxGeometry x="799.25" y="1081" width="15.75" height="17" as="geometry" />
        </mxCell>
        <mxCell id="yyw1uqhGUR_v7xHCsKaX-45" value="数据" style="rounded=1;whiteSpace=wrap;html=1;fillColor=#9AC7BF;strokeColor=default;fontColor=#000000;align=center;" vertex="1" parent="1">
          <mxGeometry x="815" y="1098" width="50" height="17" as="geometry" />
        </mxCell>
        <mxCell id="yyw1uqhGUR_v7xHCsKaX-46" value="&lt;font&gt;11&lt;/font&gt;" style="rounded=1;whiteSpace=wrap;html=1;fillColor=#9AC7BF;strokeColor=default;fontColor=#000000;" vertex="1" parent="1">
          <mxGeometry x="799.25" y="1098" width="15.75" height="17" as="geometry" />
        </mxCell>
        <mxCell id="yyw1uqhGUR_v7xHCsKaX-47" value="数据" style="rounded=1;whiteSpace=wrap;html=1;fillColor=#9AC7BF;strokeColor=default;fontColor=#000000;align=center;" vertex="1" parent="1">
          <mxGeometry x="815" y="1115" width="50" height="17" as="geometry" />
        </mxCell>
        <mxCell id="yyw1uqhGUR_v7xHCsKaX-48" value="&lt;font&gt;12&lt;/font&gt;" style="rounded=1;whiteSpace=wrap;html=1;fillColor=#9AC7BF;strokeColor=default;fontColor=#000000;" vertex="1" parent="1">
          <mxGeometry x="799.25" y="1115" width="15.75" height="17" as="geometry" />
        </mxCell>
        <mxCell id="yyw1uqhGUR_v7xHCsKaX-58" style="edgeStyle=none;rounded=0;orthogonalLoop=1;jettySize=auto;html=1;exitX=1;exitY=0.5;exitDx=0;exitDy=0;entryX=0;entryY=0.5;entryDx=0;entryDy=0;fontSize=16;fontColor=#FFFFFF;strokeColor=#000000;strokeWidth=1;startArrow=classic;startFill=1;" edge="1" parent="1" source="yyw1uqhGUR_v7xHCsKaX-59" target="yyw1uqhGUR_v7xHCsKaX-68">
          <mxGeometry relative="1" as="geometry" />
        </mxCell>
        <mxCell id="yyw1uqhGUR_v7xHCsKaX-59" value="&lt;font color=&quot;#ffffff&quot;&gt;&lt;span style=&quot;font-size: 16px&quot;&gt;&lt;br&gt;&lt;/span&gt;&lt;/font&gt;" style="whiteSpace=wrap;html=1;aspect=fixed;rounded=1;strokeColor=none;fillColor=#535E80;" vertex="1" parent="1">
          <mxGeometry x="29" y="1056" width="80" height="80" as="geometry" />
        </mxCell>
        <mxCell id="yyw1uqhGUR_v7xHCsKaX-60" value="1" style="rounded=1;whiteSpace=wrap;html=1;fillColor=#9AA4C0;strokeColor=default;fontColor=#000000;align=center;" vertex="1" parent="1">
          <mxGeometry x="75" y="1078" width="30" height="17" as="geometry" />
        </mxCell>
        <mxCell id="yyw1uqhGUR_v7xHCsKaX-61" value="&lt;font color=&quot;#ffffff&quot;&gt;页号10&lt;/font&gt;" style="text;html=1;strokeColor=none;fillColor=none;align=center;verticalAlign=middle;whiteSpace=wrap;rounded=0;dashed=1;fontColor=#535E80;" vertex="1" parent="1">
          <mxGeometry x="41" y="1056" width="55" height="22" as="geometry" />
        </mxCell>
        <mxCell id="yyw1uqhGUR_v7xHCsKaX-62" value="小白1" style="rounded=1;whiteSpace=wrap;html=1;fillColor=#9AA4C0;strokeColor=default;fontColor=#000000;" vertex="1" parent="1">
          <mxGeometry x="33" y="1078" width="42" height="17" as="geometry" />
        </mxCell>
        <mxCell id="yyw1uqhGUR_v7xHCsKaX-67" style="edgeStyle=none;rounded=0;orthogonalLoop=1;jettySize=auto;html=1;exitX=1;exitY=0.5;exitDx=0;exitDy=0;entryX=0;entryY=0.5;entryDx=0;entryDy=0;fontSize=16;fontColor=#FFFFFF;startArrow=classic;startFill=1;strokeColor=#000000;strokeWidth=1;" edge="1" parent="1" source="yyw1uqhGUR_v7xHCsKaX-68" target="yyw1uqhGUR_v7xHCsKaX-77">
          <mxGeometry relative="1" as="geometry" />
        </mxCell>
        <mxCell id="yyw1uqhGUR_v7xHCsKaX-68" value="&lt;font color=&quot;#ffffff&quot;&gt;&lt;span style=&quot;font-size: 16px&quot;&gt;&lt;br&gt;&lt;/span&gt;&lt;/font&gt;" style="whiteSpace=wrap;html=1;aspect=fixed;rounded=1;strokeColor=none;fillColor=#535E80;" vertex="1" parent="1">
          <mxGeometry x="133" y="1056" width="80" height="80" as="geometry" />
        </mxCell>
        <mxCell id="yyw1uqhGUR_v7xHCsKaX-70" value="&lt;font color=&quot;#ffffff&quot;&gt;页号15&lt;/font&gt;" style="text;html=1;strokeColor=none;fillColor=none;align=center;verticalAlign=middle;whiteSpace=wrap;rounded=0;dashed=1;fontColor=#535E80;" vertex="1" parent="1">
          <mxGeometry x="145" y="1056" width="55" height="22" as="geometry" />
        </mxCell>
        <mxCell id="yyw1uqhGUR_v7xHCsKaX-76" style="edgeStyle=none;rounded=0;orthogonalLoop=1;jettySize=auto;html=1;exitX=1;exitY=0.5;exitDx=0;exitDy=0;fontSize=16;fontColor=#FFFFFF;startArrow=classic;startFill=1;strokeColor=#000000;strokeWidth=1;" edge="1" parent="1" source="yyw1uqhGUR_v7xHCsKaX-77" target="yyw1uqhGUR_v7xHCsKaX-85">
          <mxGeometry relative="1" as="geometry" />
        </mxCell>
        <mxCell id="yyw1uqhGUR_v7xHCsKaX-77" value="&lt;font color=&quot;#ffffff&quot;&gt;&lt;span style=&quot;font-size: 16px&quot;&gt;&lt;br&gt;&lt;/span&gt;&lt;/font&gt;" style="whiteSpace=wrap;html=1;aspect=fixed;rounded=1;strokeColor=none;fillColor=#535E80;" vertex="1" parent="1">
          <mxGeometry x="235" y="1056" width="80" height="80" as="geometry" />
        </mxCell>
        <mxCell id="yyw1uqhGUR_v7xHCsKaX-79" value="&lt;font color=&quot;#ffffff&quot;&gt;页号9&lt;/font&gt;" style="text;html=1;strokeColor=none;fillColor=none;align=center;verticalAlign=middle;whiteSpace=wrap;rounded=0;dashed=1;fontColor=#535E80;" vertex="1" parent="1">
          <mxGeometry x="247" y="1056" width="55" height="22" as="geometry" />
        </mxCell>
        <mxCell id="yyw1uqhGUR_v7xHCsKaX-85" value="&lt;font color=&quot;#ffffff&quot;&gt;&lt;span style=&quot;font-size: 16px&quot;&gt;&lt;br&gt;&lt;/span&gt;&lt;/font&gt;" style="whiteSpace=wrap;html=1;aspect=fixed;rounded=1;strokeColor=none;fillColor=#535E80;" vertex="1" parent="1">
          <mxGeometry x="337" y="1056" width="80" height="80" as="geometry" />
        </mxCell>
        <mxCell id="yyw1uqhGUR_v7xHCsKaX-87" value="&lt;font color=&quot;#ffffff&quot;&gt;页号8&lt;/font&gt;" style="text;html=1;strokeColor=none;fillColor=none;align=center;verticalAlign=middle;whiteSpace=wrap;rounded=0;dashed=1;fontColor=#535E80;" vertex="1" parent="1">
          <mxGeometry x="349" y="1056" width="55" height="22" as="geometry" />
        </mxCell>
        <mxCell id="yyw1uqhGUR_v7xHCsKaX-99" value="2" style="rounded=1;whiteSpace=wrap;html=1;fillColor=#9AA4C0;strokeColor=default;fontColor=#000000;align=center;" vertex="1" parent="1">
          <mxGeometry x="75" y="1095" width="30" height="17" as="geometry" />
        </mxCell>
        <mxCell id="yyw1uqhGUR_v7xHCsKaX-100" value="小白2" style="rounded=1;whiteSpace=wrap;html=1;fillColor=#9AA4C0;strokeColor=default;fontColor=#000000;" vertex="1" parent="1">
          <mxGeometry x="33" y="1095" width="42" height="17" as="geometry" />
        </mxCell>
        <mxCell id="yyw1uqhGUR_v7xHCsKaX-101" value="3" style="rounded=1;whiteSpace=wrap;html=1;fillColor=#9AA4C0;strokeColor=default;fontColor=#000000;align=center;" vertex="1" parent="1">
          <mxGeometry x="75" y="1112" width="30" height="17" as="geometry" />
        </mxCell>
        <mxCell id="yyw1uqhGUR_v7xHCsKaX-102" value="小白3" style="rounded=1;whiteSpace=wrap;html=1;fillColor=#9AA4C0;strokeColor=default;fontColor=#000000;" vertex="1" parent="1">
          <mxGeometry x="33" y="1112" width="42" height="17" as="geometry" />
        </mxCell>
        <mxCell id="yyw1uqhGUR_v7xHCsKaX-109" value="4" style="rounded=1;whiteSpace=wrap;html=1;fillColor=#9AA4C0;strokeColor=default;fontColor=#000000;align=center;" vertex="1" parent="1">
          <mxGeometry x="179" y="1078" width="30" height="17" as="geometry" />
        </mxCell>
        <mxCell id="yyw1uqhGUR_v7xHCsKaX-110" value="小白4" style="rounded=1;whiteSpace=wrap;html=1;fillColor=#9AA4C0;strokeColor=default;fontColor=#000000;" vertex="1" parent="1">
          <mxGeometry x="137" y="1078" width="42" height="17" as="geometry" />
        </mxCell>
        <mxCell id="yyw1uqhGUR_v7xHCsKaX-111" value="5" style="rounded=1;whiteSpace=wrap;html=1;fillColor=#9AA4C0;strokeColor=default;fontColor=#000000;align=center;" vertex="1" parent="1">
          <mxGeometry x="179" y="1095" width="30" height="17" as="geometry" />
        </mxCell>
        <mxCell id="yyw1uqhGUR_v7xHCsKaX-112" value="小白5" style="rounded=1;whiteSpace=wrap;html=1;fillColor=#9AA4C0;strokeColor=default;fontColor=#000000;" vertex="1" parent="1">
          <mxGeometry x="137" y="1095" width="42" height="17" as="geometry" />
        </mxCell>
        <mxCell id="yyw1uqhGUR_v7xHCsKaX-113" value="6" style="rounded=1;whiteSpace=wrap;html=1;fillColor=#9AA4C0;strokeColor=default;fontColor=#000000;align=center;" vertex="1" parent="1">
          <mxGeometry x="179" y="1112" width="30" height="17" as="geometry" />
        </mxCell>
        <mxCell id="yyw1uqhGUR_v7xHCsKaX-114" value="小白6" style="rounded=1;whiteSpace=wrap;html=1;fillColor=#9AA4C0;strokeColor=default;fontColor=#000000;" vertex="1" parent="1">
          <mxGeometry x="137" y="1112" width="42" height="17" as="geometry" />
        </mxCell>
        <mxCell id="yyw1uqhGUR_v7xHCsKaX-115" value="7" style="rounded=1;whiteSpace=wrap;html=1;fillColor=#9AA4C0;strokeColor=default;fontColor=#000000;align=center;" vertex="1" parent="1">
          <mxGeometry x="280.5" y="1078" width="30" height="17" as="geometry" />
        </mxCell>
        <mxCell id="yyw1uqhGUR_v7xHCsKaX-116" value="小白7" style="rounded=1;whiteSpace=wrap;html=1;fillColor=#9AA4C0;strokeColor=default;fontColor=#000000;" vertex="1" parent="1">
          <mxGeometry x="238.5" y="1078" width="42" height="17" as="geometry" />
        </mxCell>
        <mxCell id="yyw1uqhGUR_v7xHCsKaX-117" value="8" style="rounded=1;whiteSpace=wrap;html=1;fillColor=#9AA4C0;strokeColor=default;fontColor=#000000;align=center;" vertex="1" parent="1">
          <mxGeometry x="280.5" y="1095" width="30" height="17" as="geometry" />
        </mxCell>
        <mxCell id="yyw1uqhGUR_v7xHCsKaX-118" value="小白8" style="rounded=1;whiteSpace=wrap;html=1;fillColor=#9AA4C0;strokeColor=default;fontColor=#000000;" vertex="1" parent="1">
          <mxGeometry x="238.5" y="1095" width="42" height="17" as="geometry" />
        </mxCell>
        <mxCell id="yyw1uqhGUR_v7xHCsKaX-119" value="9" style="rounded=1;whiteSpace=wrap;html=1;fillColor=#9AA4C0;strokeColor=default;fontColor=#000000;align=center;" vertex="1" parent="1">
          <mxGeometry x="280.5" y="1112" width="30" height="17" as="geometry" />
        </mxCell>
        <mxCell id="yyw1uqhGUR_v7xHCsKaX-120" value="小白9" style="rounded=1;whiteSpace=wrap;html=1;fillColor=#9AA4C0;strokeColor=default;fontColor=#000000;" vertex="1" parent="1">
          <mxGeometry x="238.5" y="1112" width="42" height="17" as="geometry" />
        </mxCell>
        <mxCell id="yyw1uqhGUR_v7xHCsKaX-121" value="10" style="rounded=1;whiteSpace=wrap;html=1;fillColor=#F19C99;strokeColor=default;fontColor=#000000;align=center;" vertex="1" parent="1">
          <mxGeometry x="383" y="1078" width="30" height="17" as="geometry" />
        </mxCell>
        <mxCell id="yyw1uqhGUR_v7xHCsKaX-122" value="小白10" style="rounded=1;whiteSpace=wrap;html=1;fillColor=#F19C99;strokeColor=default;fontColor=#000000;" vertex="1" parent="1">
          <mxGeometry x="341" y="1078" width="42" height="17" as="geometry" />
        </mxCell>
        <mxCell id="yyw1uqhGUR_v7xHCsKaX-123" value="11" style="rounded=1;whiteSpace=wrap;html=1;fillColor=#9AA4C0;strokeColor=default;fontColor=#000000;align=center;" vertex="1" parent="1">
          <mxGeometry x="383" y="1095" width="30" height="17" as="geometry" />
        </mxCell>
        <mxCell id="yyw1uqhGUR_v7xHCsKaX-124" value="小白11" style="rounded=1;whiteSpace=wrap;html=1;fillColor=#9AA4C0;strokeColor=default;fontColor=#000000;" vertex="1" parent="1">
          <mxGeometry x="341" y="1095" width="42" height="17" as="geometry" />
        </mxCell>
        <mxCell id="yyw1uqhGUR_v7xHCsKaX-125" value="12" style="rounded=1;whiteSpace=wrap;html=1;fillColor=#9AA4C0;strokeColor=default;fontColor=#000000;align=center;" vertex="1" parent="1">
          <mxGeometry x="383" y="1112" width="30" height="17" as="geometry" />
        </mxCell>
        <mxCell id="yyw1uqhGUR_v7xHCsKaX-126" value="小白12" style="rounded=1;whiteSpace=wrap;html=1;fillColor=#9AA4C0;strokeColor=default;fontColor=#000000;" vertex="1" parent="1">
          <mxGeometry x="341" y="1112" width="42" height="17" as="geometry" />
        </mxCell>
        <mxCell id="yyw1uqhGUR_v7xHCsKaX-15" value="" style="curved=1;endArrow=classic;html=1;rounded=0;fontSize=16;fontColor=#FFFFFF;strokeColor=#999999;strokeWidth=3;dashed=1;" edge="1" parent="1">
          <mxGeometry width="50" height="50" relative="1" as="geometry">
            <mxPoint x="266" y="930" as="sourcePoint" />
            <mxPoint x="641" y="922" as="targetPoint" />
            <Array as="points">
              <mxPoint x="363" y="961" />
              <mxPoint x="384" y="1052" />
              <mxPoint x="411" y="1085" />
              <mxPoint x="486" y="961" />
              <mxPoint x="558" y="899" />
            </Array>
          </mxGeometry>
        </mxCell>
        <mxCell id="yyw1uqhGUR_v7xHCsKaX-130" value="" style="curved=1;endArrow=classic;html=1;rounded=0;fontSize=16;fontColor=#FFFFFF;strokeColor=#999999;strokeWidth=3;dashed=1;" edge="1" parent="1">
          <mxGeometry width="50" height="50" relative="1" as="geometry">
            <mxPoint x="717" y="930" as="sourcePoint" />
            <mxPoint x="835" y="1052" as="targetPoint" />
            <Array as="points">
              <mxPoint x="753" y="980" />
              <mxPoint x="806" y="997" />
              <mxPoint x="844" y="1000" />
            </Array>
          </mxGeometry>
        </mxCell>
        <mxCell id="yyw1uqhGUR_v7xHCsKaX-131" value="&lt;font color=&quot;#999999&quot;&gt;回表&lt;/font&gt;" style="text;html=1;strokeColor=none;fillColor=none;align=center;verticalAlign=middle;whiteSpace=wrap;rounded=0;fontSize=16;fontColor=#FFFFFF;" vertex="1" parent="1">
          <mxGeometry x="421" y="959" width="60" height="30" as="geometry" />
        </mxCell>
      </root>
    </mxGraphModel>
  </diagram>
</mxfile>
